<svg version="1.1" id="Layer_1" xmlns="http://www.w3.org/2000/svg" xmlns:xlink="http://www.w3.org/1999/xlink" x="0px" y="0px"
	 width="100%" viewBox="0 0 648 160" enable-background="new 0 0 648 160" xml:space="preserve">
<path fill="#FEFEFF" opacity="1.000000" stroke="none" 
	d="
M428.000000,161.000000 
	C285.377319,161.000000 143.254623,161.000000 1.065969,161.000000 
	C1.065969,107.727211 1.065969,54.454323 1.065969,1.090716 
	C216.999985,1.090716 433.000000,1.090716 648.965759,1.090716 
	C648.965759,54.411980 648.965759,107.706001 648.965759,161.000000 
	C575.454346,161.000000 501.977173,161.000000 428.000000,161.000000 
M165.057861,32.943626 
	C165.057861,32.943626 165.146408,32.929718 165.025558,32.444424 
	C165.003433,32.078854 164.832153,31.807415 164.469101,31.568449 
	C164.469101,31.568449 164.510757,31.506111 164.266449,31.005951 
	C163.866440,30.637541 163.466431,30.269131 163.021744,29.975334 
	C163.021744,29.975334 163.105728,29.952765 162.943665,29.431723 
	C162.649719,29.229088 162.355774,29.026455 161.982529,28.383125 
	C161.982529,28.383125 161.738174,28.007915 161.561722,27.376558 
	C159.019363,25.354429 156.775742,22.449369 153.880630,21.469885 
	C143.767212,18.048269 133.501831,14.996357 123.138618,12.432994 
	C119.177559,11.453219 114.453819,11.087502 110.662880,12.288792 
	C85.463074,20.274229 60.414589,28.738461 35.346382,37.135010 
	C33.728298,37.676979 32.355991,38.952728 30.992401,39.989857 
	C30.992401,39.989857 30.887081,39.868996 30.262281,40.151485 
	C29.555281,41.768661 28.848282,43.385841 27.869801,45.729500 
	C26.665197,52.066963 25.189369,58.125225 17.672710,60.115166 
	C16.509569,60.423096 15.734102,62.195393 14.542446,63.337189 
	C14.542446,63.337189 14.611542,63.701588 14.388903,64.381439 
	C14.377579,64.857262 14.366255,65.333084 13.968971,66.529594 
	C11.530152,71.778130 11.098793,76.938950 14.599684,81.950691 
	C15.805609,83.677048 16.962849,85.437401 18.019749,87.975700 
	C18.698362,91.627930 19.371735,95.281151 20.056818,98.932167 
	C21.085081,104.412079 22.996311,109.273857 27.656067,112.932381 
	C39.237221,122.025108 50.685509,131.290161 62.071831,140.626663 
	C67.796379,145.320648 74.054413,145.989243 80.654106,143.433563 
	C110.123062,132.022018 139.557266,120.519852 168.941284,108.891899 
	C170.892090,108.119919 172.997589,106.351288 173.875946,104.498566 
	C177.538910,96.772217 180.759888,88.836342 184.736404,80.659737 
	C185.351334,80.126167 185.899445,79.477051 186.591507,79.076912 
	C193.575363,75.039024 194.187500,71.111717 188.215668,65.831177 
	C183.807770,61.933525 179.016220,58.469753 174.584381,54.100334 
	C177.430344,52.175079 180.414505,50.421379 183.081039,48.273380 
	C185.458603,46.358158 186.383179,44.010365 183.021164,41.982815 
	C183.021164,41.982815 183.131104,41.895885 182.805481,41.256424 
	C177.550934,39.133953 172.296402,37.011486 166.905960,34.442253 
	C166.727234,34.160034 166.472549,33.995232 165.962982,33.433147 
	C165.665024,33.240330 165.367081,33.047516 165.057861,32.943626 
M494.967194,68.505623 
	C489.798889,74.544037 489.171753,81.438942 491.660431,88.628334 
	C494.583740,97.073364 502.559113,100.161453 510.540405,96.251396 
	C512.142334,95.466599 513.707947,94.607674 515.556396,93.644211 
	C515.943665,95.570694 516.254822,97.118431 516.733826,99.501221 
	C520.271851,98.626709 523.506592,97.827179 526.741333,97.027649 
	C521.686646,94.867134 521.597351,94.867256 521.589417,89.167885 
	C521.580444,82.681358 521.798828,76.194847 521.833435,69.707870 
	C521.879883,60.997139 521.844910,52.285976 521.844910,43.229076 
	C518.013855,44.288879 514.430054,45.280266 511.093597,46.203239 
	C513.223022,48.188972 515.881042,49.479382 516.147034,51.150478 
	C516.803284,55.273956 516.362122,59.572079 516.362122,63.872829 
	C503.676422,62.553291 501.541077,63.001560 494.967194,68.505623 
M606.961487,91.972771 
	C605.600403,91.039856 604.239319,90.106934 602.878235,89.174011 
	C602.956177,88.693390 603.034119,88.212769 603.112122,87.732147 
	C605.214722,87.159569 607.294067,86.223221 609.424683,86.086830 
	C614.550049,85.758720 618.910400,84.086578 621.667969,79.628487 
	C624.273438,75.416519 623.483521,71.216629 620.802124,67.867836 
	C622.520813,65.211548 627.170471,70.269760 627.539612,65.207947 
	C622.837524,64.635277 618.251404,64.417854 613.826294,63.458107 
	C607.137573,62.007401 599.986145,64.765739 597.222290,70.397720 
	C594.434570,76.078552 596.055115,80.444496 602.802979,85.427086 
	C601.039368,86.820633 599.275757,88.214180 597.297485,89.777374 
	C598.755676,92.090096 599.965210,94.008392 601.415039,96.307854 
	C600.179565,97.436539 598.850891,98.441978 597.774963,99.669037 
	C593.030640,105.079842 594.285339,111.216187 600.718994,114.403709 
	C609.497192,118.752785 623.316162,113.194405 626.574158,104.004028 
	C628.692993,98.027046 626.493713,93.644325 620.274353,92.593948 
	C616.223022,91.909729 612.014771,92.155075 606.961487,91.972771 
M580.113403,63.033604 
	C573.542419,59.916527 568.602783,64.328209 563.281372,67.130386 
	C563.028809,65.333672 562.837585,63.973366 562.620972,62.432713 
	C559.058167,63.568985 555.896362,64.577347 552.734558,65.585716 
	C552.272278,66.094521 551.810059,66.603325 551.347778,67.112122 
	C557.929626,65.979706 556.933228,69.651886 556.973877,72.581848 
	C557.033813,76.911858 556.952820,81.243698 556.999268,85.574043 
	C557.048706,90.180527 557.234253,94.809570 552.221191,97.557617 
	C557.104553,97.557617 561.987915,97.557617 565.711243,97.557617 
	C564.694397,94.732857 563.168518,92.097542 562.884827,89.334671 
	C562.445374,85.055466 562.814941,80.688354 562.911438,76.360077 
	C563.051575,70.077423 568.153137,65.839592 574.338440,67.168930 
	C575.902405,67.505066 577.775024,68.804558 578.508728,70.189568 
	C581.703125,76.219460 579.308838,92.747360 574.845520,97.406883 
	C579.716064,97.406883 584.541931,97.406883 588.324158,97.406883 
	C587.238220,94.903183 585.552795,92.666626 585.394409,90.326706 
	C585.001648,84.526161 585.825684,78.615616 585.131348,72.873779 
	C584.733154,69.580841 582.325134,66.530952 580.113403,63.033604 
M238.226318,84.364510 
	C238.226318,81.075203 238.226318,77.785896 238.226318,73.839134 
	C245.315292,75.359039 253.283936,70.209084 258.442322,80.465248 
	C258.442322,74.913300 258.442322,70.909424 258.442322,66.542107 
	C252.443756,74.098732 245.055267,69.843956 238.726715,70.878105 
	C238.726715,63.932442 238.726715,57.680714 238.726715,50.598141 
	C246.885925,52.698189 256.770325,46.377708 261.684509,57.933739 
	C261.684509,54.778721 261.684509,51.623703 261.684509,48.634464 
	C249.618103,48.634464 237.983627,48.634464 226.349152,48.634464 
	C231.942673,49.512043 232.007828,53.366764 231.968979,57.507324 
	C231.878418,67.158257 231.973114,76.810776 231.923950,86.462296 
	C231.900635,91.034714 232.394424,95.980522 226.069717,97.293671 
	C232.375671,97.293671 238.681610,97.293671 244.987564,97.293671 
	C239.766357,96.218826 237.856766,93.196419 238.217590,88.296326 
	C238.290726,87.303207 238.227020,86.300011 238.226318,84.364510 
M299.184784,96.956863 
	C300.242554,96.409805 301.300323,95.862747 302.358063,95.315697 
	C296.661682,94.846504 297.377319,90.870171 297.366882,87.409157 
	C297.342926,79.447830 297.359314,71.486382 297.359314,63.377674 
	C295.772186,63.678333 293.888184,64.027847 292.007294,64.393669 
	C290.212280,64.742805 288.420563,65.108925 286.627411,65.467583 
	C286.238586,66.013275 285.849792,66.558960 285.460968,67.104652 
	C291.809113,65.941833 291.869232,69.440186 291.859497,72.959068 
	C291.846161,77.779991 291.991852,82.614166 291.656342,87.413780 
	C291.552002,88.906723 290.463867,90.871201 289.218628,91.656456 
	C281.097778,96.777596 275.692627,94.004433 275.320801,84.456963 
	C275.037354,77.178375 275.264496,69.879913 275.264496,62.364288 
	C272.038269,63.331615 268.584412,64.367203 265.130524,65.402794 
	C270.248627,66.343346 269.993317,69.827141 269.932434,73.236549 
	C269.834503,78.719772 269.556396,84.213272 269.778961,89.685158 
	C270.031158,95.884987 275.072449,100.178856 280.830719,98.826454 
	C284.113312,98.055504 287.073669,95.928146 290.199951,94.455780 
	C290.583252,94.275269 291.095703,94.368980 291.621124,94.330238 
	C291.791168,95.741699 291.946228,97.028969 292.147614,98.700607 
	C294.398834,98.116142 296.424072,97.590347 299.184784,96.956863 
M397.761505,48.996223 
	C394.983490,48.689568 392.205475,48.382912 389.070557,48.036858 
	C388.760040,51.505844 388.435486,55.132114 388.110931,58.758389 
	C392.917938,51.577526 395.862549,50.515736 406.459808,52.666199 
	C406.459808,64.095322 406.488373,75.551231 406.445831,87.006874 
	C406.428680,91.623497 406.865204,96.627541 400.099457,97.480743 
	C406.681488,97.480743 413.263489,97.480743 419.351990,97.480743 
	C417.405426,95.635864 413.970245,93.913834 413.905304,92.072899 
	C413.438385,78.837082 413.655365,65.577141 413.655365,52.127876 
	C420.286682,52.294518 427.720673,49.554386 430.911011,58.554604 
	C430.911011,54.993301 430.911011,51.431999 430.911011,48.996506 
	C419.931091,48.996506 409.316559,48.996506 397.761505,48.996223 
M485.483032,96.291885 
	C486.149048,95.448997 486.815094,94.606102 488.078186,93.007561 
	C480.316376,94.419937 480.022003,94.173828 480.293427,87.214516 
	C480.481079,82.403000 481.034790,77.589958 480.941437,72.787003 
	C480.803589,65.694527 475.777374,61.530674 468.973358,63.257854 
	C465.427490,64.157959 462.098694,66.331505 459.019745,68.438293 
	C457.856598,69.234207 457.638702,71.451714 457.138855,73.067291 
	C457.111664,73.155144 458.844238,74.126274 459.106598,73.907051 
	C460.334137,72.881424 461.913849,71.744957 462.304199,70.350410 
	C463.430695,66.325836 466.332733,65.875511 469.656982,66.047890 
	C473.043457,66.223511 474.717621,68.299034 474.947540,71.525642 
	C475.099213,73.653542 474.976257,75.800995 474.976257,77.585426 
	C469.636963,79.588104 464.509125,81.057518 459.820068,83.403801 
	C455.525940,85.552475 454.597168,89.901009 456.640564,94.084061 
	C458.659210,98.216423 462.512024,99.880104 466.938934,98.265770 
	C469.547241,97.314613 472.014984,95.978035 474.542236,94.816513 
	C477.234558,99.947044 478.267365,100.134750 485.483032,96.291885 
M312.875000,50.282528 
	C312.993164,62.904030 313.153381,75.525368 313.204224,88.147133 
	C313.219757,92.005577 313.663666,96.279236 308.160004,97.452255 
	C313.407410,97.452255 318.654816,97.452255 325.216339,97.452255 
	C318.965179,94.758110 318.917053,94.758171 318.909241,88.909248 
	C318.899445,81.589027 318.994904,74.268738 319.015106,66.948387 
	C319.035583,59.526768 319.019653,52.105042 319.019653,44.340893 
	C315.096954,45.478607 311.721741,46.457531 306.898346,47.856483 
	C309.699646,48.766869 311.016937,49.194969 312.875000,50.282528 
M339.747253,79.500114 
	C339.747253,74.071327 339.747253,68.642532 339.747253,62.851002 
	C336.192291,64.021851 332.899597,65.106331 329.823853,66.119354 
	C331.493683,67.992584 333.744385,69.342133 333.767944,70.729492 
	C333.959717,82.021996 333.965088,93.330498 333.527679,104.614761 
	C333.343445,109.368797 330.947571,113.150322 325.562531,114.089218 
	C324.897522,114.205162 324.432739,115.469528 323.615082,116.543236 
	C332.284332,117.099236 338.524475,112.040939 339.132416,103.910515 
	C339.713837,96.135139 339.571228,88.305634 339.747253,79.500114 
M450.503632,63.894554 
	C443.719330,60.453106 441.969208,68.240517 436.864532,70.333374 
	C437.270447,67.380424 437.588470,65.067001 437.977661,62.236057 
	C434.233673,63.545475 431.020203,64.669357 428.998260,65.376518 
	C430.270813,68.437080 431.773651,70.598274 431.990173,72.881447 
	C432.412415,77.333740 432.168732,81.855133 432.099701,86.346359 
	C432.032959,90.689514 433.469269,95.759010 427.219574,97.338791 
	C432.770569,97.338791 438.321533,97.338791 442.891998,97.338791 
	C441.284149,95.509865 438.600098,93.852135 438.302490,91.841187 
	C437.578461,86.949242 437.738220,81.883141 437.964569,76.906403 
	C438.179474,72.182243 443.045776,68.463074 447.120697,69.328590 
	C448.420929,69.604759 449.821838,69.407104 451.176666,69.426262 
	C451.145966,67.752846 451.115265,66.079430 450.503632,63.894554 
M535.044800,68.580460 
	C535.243286,74.341385 535.574036,80.101768 535.598083,85.863419 
	C535.617004,90.398628 535.660217,95.119347 530.405701,97.508392 
	C535.585388,97.508392 540.765137,97.508392 545.944824,97.508392 
	C540.900757,96.264404 541.205994,92.488792 541.219116,88.818840 
	C541.249756,80.230499 541.228882,71.641968 541.228882,62.765007 
	C537.863708,63.891743 534.361877,65.064224 530.860107,66.236710 
	C530.972839,66.590042 531.085632,66.943367 531.198425,67.296700 
	C532.263855,67.547356 533.329346,67.798012 535.044800,68.580460 
M359.820770,63.783764 
	C356.157227,64.399452 352.493683,65.015144 348.830170,65.630829 
	C348.631744,66.255165 348.433289,66.879494 348.234863,67.503822 
	C354.122772,66.863525 353.894958,70.343903 353.818420,73.773636 
	C353.725830,77.921509 353.749756,82.072403 353.624237,86.219002 
	C353.490601,90.634132 353.555878,95.196976 348.359680,97.571152 
	C353.540100,97.571152 358.720520,97.571152 363.900970,97.571152 
	C358.408234,96.070580 359.184967,91.775398 359.247711,87.947807 
	C359.375458,80.152061 359.610718,72.358078 359.820770,63.783764 
M334.644897,47.409454 
	C330.809143,51.070446 330.922607,51.600925 337.227356,55.731548 
	C338.301392,53.792690 340.085693,51.888943 340.118561,49.955418 
	C340.134949,48.991989 336.944122,47.974022 334.644897,47.409454 
M360.084106,52.001011 
	C359.034424,49.969646 357.984772,47.938282 356.896973,45.833111 
	C350.307098,50.302776 350.349426,51.332378 356.370544,55.235413 
	C357.452454,54.402550 358.611450,53.510338 360.084106,52.001011 
M534.811096,48.695175 
	C532.340393,51.815487 535.079651,53.436478 537.038452,54.449200 
	C538.003906,54.948357 540.487122,53.819668 541.388489,52.704262 
	C542.059509,51.873936 541.789856,49.541183 541.062378,48.476727 
	C539.522400,46.223351 537.345459,45.960018 534.811096,48.695175 
z"/>
<path fill="#0D6DA0" opacity="1.000000" stroke="none" 
	d="
M161.738174,28.007915 
	C161.738174,28.007915 161.982529,28.383125 162.113373,28.858345 
	C162.531387,29.539965 162.818558,29.746365 163.105728,29.952765 
	C163.105728,29.952765 163.021744,29.975334 163.060150,30.270897 
	C163.569305,30.879677 164.040024,31.192894 164.510757,31.506111 
	C164.510757,31.506111 164.469101,31.568449 164.419800,31.876038 
	C164.629135,32.432320 164.887772,32.681019 165.146408,32.929718 
	C165.146408,32.929718 165.057861,32.943626 165.159882,33.152214 
	C165.555237,33.556480 165.848557,33.752163 166.141891,33.947845 
	C166.472549,33.995232 166.727234,34.160034 167.015625,35.029621 
	C171.228333,38.062885 175.331390,40.508781 179.616241,43.063061 
	C180.426575,42.793976 181.778839,42.344929 183.131104,41.895885 
	C183.131104,41.895885 183.021164,41.982815 183.035583,42.286453 
	C183.760818,46.343697 182.189651,48.121937 178.389862,48.004536 
	C177.248306,47.969265 176.101425,48.056618 174.962662,47.990284 
	C171.578186,47.793125 169.375519,48.522694 170.921417,52.645733 
	C171.193665,53.371857 171.023712,54.263786 171.027939,55.069016 
	C170.997910,55.058887 171.059540,55.052742 170.750885,55.055996 
	C169.966141,55.391773 169.490082,55.724297 168.993530,56.381653 
	C168.976944,57.140114 168.980820,57.573750 168.592270,57.995857 
	C162.462830,60.964039 156.725830,63.943748 150.661636,67.051498 
	C148.054367,69.860161 146.176208,73.121017 143.380646,75.057396 
	C140.613052,76.974388 136.992813,77.926331 133.607071,78.591423 
	C131.353760,79.034073 128.858643,78.195625 126.466377,77.994217 
	C123.678841,77.759514 120.634331,76.774040 118.137444,77.538605 
	C106.387230,81.136597 94.737823,85.086143 83.159180,89.209923 
	C79.147263,90.638786 75.648216,90.674805 71.694031,88.968544 
	C66.237404,86.613976 60.506149,84.895844 54.665211,82.649078 
	C51.686317,81.297447 48.949970,80.161575 46.180283,79.113853 
	C38.205742,76.097229 30.217745,73.116188 22.014400,69.844719 
	C19.314154,68.315140 16.834543,67.062019 14.354931,65.808907 
	C14.366255,65.333084 14.377579,64.857262 14.588966,64.011002 
	C14.789030,63.640564 14.779354,63.290493 14.779354,63.290493 
	C15.734102,62.195393 16.509569,60.423096 17.672710,60.115166 
	C25.189369,58.125225 26.665197,52.066963 28.392937,45.349709 
	C29.573078,43.269611 30.230080,41.569302 30.887081,39.868996 
	C30.887081,39.868996 30.992401,39.989857 31.323112,39.966400 
	C35.468498,38.701626 39.283173,37.460304 43.043785,36.236572 
	C43.802601,37.261589 44.455364,38.143345 45.098816,39.398628 
	C46.480709,41.162495 47.634151,43.263191 49.303680,43.821991 
	C57.139164,46.444580 65.028313,49.043808 73.081940,50.817551 
	C76.879257,51.653873 81.322823,51.401493 85.071594,50.288506 
	C100.134415,45.816463 115.040100,40.815132 130.234589,36.263397 
	C135.770523,35.105274 141.128738,33.857216 146.345886,32.172405 
	C147.751846,31.718369 148.729568,29.938206 149.916779,28.571636 
	C149.929688,28.376505 150.039368,28.001087 150.388824,27.933882 
	C151.131042,27.398634 151.537933,26.941631 151.913605,26.460262 
	C152.708313,25.441957 153.486725,24.410934 154.271805,23.385128 
	C154.849899,24.432060 155.479980,25.454597 155.986771,26.534977 
	C156.295853,27.193855 156.415070,27.941792 156.580444,28.514345 
	C158.541214,28.321821 160.139694,28.164869 161.738174,28.007915 
z"/>
<path fill="#0E6DA0" opacity="1.000000" stroke="none" 
	d="
M184.142944,80.977295 
	C180.759888,88.836342 177.538910,96.772217 173.875946,104.498566 
	C172.997589,106.351288 170.892090,108.119919 168.941284,108.891899 
	C139.557266,120.519852 110.123062,132.022018 80.654106,143.433563 
	C74.054413,145.989243 67.796379,145.320648 62.071831,140.626663 
	C50.685509,131.290161 39.237221,122.025108 27.656067,112.932381 
	C22.996311,109.273857 21.085081,104.412079 20.056818,98.932167 
	C19.371735,95.281151 18.698362,91.627930 18.419046,87.574013 
	C31.582905,96.693291 44.672054,105.816322 57.000240,115.872269 
	C65.507690,122.811691 74.433517,124.609962 84.404907,121.222198 
	C94.296791,117.861443 103.931038,113.748375 113.746857,110.152443 
	C115.642960,109.457817 118.574303,108.658775 119.798241,109.566391 
	C125.126251,113.517365 129.829926,111.280128 134.771240,109.112587 
	C138.576202,107.443512 142.404434,105.780815 146.340469,104.470123 
	C150.401443,103.117828 153.648788,101.361694 154.063995,96.489082 
	C154.141235,95.582626 155.228973,94.413597 156.141922,93.980873 
	C165.440964,89.573273 174.800400,85.293114 184.142944,80.977295 
z"/>
<path fill="#28A7EB" opacity="1.000000" stroke="none" 
	d="
M184.439667,80.818512 
	C174.800400,85.293114 165.440964,89.573273 156.141922,93.980873 
	C155.228973,94.413597 154.141235,95.582626 154.063995,96.489082 
	C153.648788,101.361694 150.401443,103.117828 146.340469,104.470123 
	C142.404434,105.780815 138.576202,107.443512 134.771240,109.112587 
	C129.829926,111.280128 125.126251,113.517365 119.798241,109.566391 
	C118.574303,108.658775 115.642960,109.457817 113.746857,110.152443 
	C103.931038,113.748375 94.296791,117.861443 84.404907,121.222198 
	C74.433517,124.609962 65.507690,122.811691 57.000240,115.872269 
	C44.672054,105.816322 31.582905,96.693291 18.480335,87.177277 
	C16.962849,85.437401 15.805609,83.677048 14.599684,81.950691 
	C11.098793,76.938950 11.530152,71.778130 14.161951,66.169250 
	C16.834543,67.062019 19.314154,68.315140 21.940895,70.267776 
	C22.794800,74.242516 22.496170,78.403931 24.429848,80.597710 
	C27.842461,84.469345 32.615944,87.141464 36.933403,90.624634 
	C46.835262,98.596977 56.507713,106.417351 66.508530,113.792473 
	C68.528008,115.281738 71.866440,115.786980 74.462997,115.506653 
	C78.695198,115.049744 82.958282,113.951141 86.961281,112.460060 
	C104.077026,106.084633 121.158417,99.607941 138.137955,92.879547 
	C147.220978,89.280266 156.071594,85.094536 165.395401,81.119843 
	C169.970535,79.103737 174.174332,77.134758 178.385117,75.180779 
	C181.978302,73.513382 182.760773,71.277664 179.738297,68.337814 
	C176.175293,64.872223 172.571075,61.448978 168.984711,58.007378 
	C168.980820,57.573750 168.976944,57.140114 169.293793,56.353420 
	C170.096207,55.684486 170.577866,55.368610 171.059540,55.052742 
	C171.059540,55.052742 170.997910,55.058887 171.366547,55.043804 
	C172.621979,54.956703 173.508789,54.884686 174.395599,54.812668 
	C179.016220,58.469753 183.807770,61.933525 188.215668,65.831177 
	C194.187500,71.111717 193.575363,75.039024 186.591507,79.076912 
	C185.899445,79.477051 185.351334,80.126167 184.439667,80.818512 
z"/>
<path fill="#1671A3" opacity="1.000000" stroke="none" 
	d="
M495.221100,68.243599 
	C501.541077,63.001560 503.676422,62.553291 516.362122,63.872829 
	C516.362122,59.572079 516.803284,55.273956 516.147034,51.150478 
	C515.881042,49.479382 513.223022,48.188972 511.093597,46.203239 
	C514.430054,45.280266 518.013855,44.288879 521.844910,43.229076 
	C521.844910,52.285976 521.879883,60.997139 521.833435,69.707870 
	C521.798828,76.194847 521.580444,82.681358 521.589417,89.167885 
	C521.597351,94.867256 521.686646,94.867134 526.741333,97.027649 
	C523.506592,97.827179 520.271851,98.626709 516.733826,99.501221 
	C516.254822,97.118431 515.943665,95.570694 515.556396,93.644211 
	C513.707947,94.607674 512.142334,95.466599 510.540405,96.251396 
	C502.559113,100.161453 494.583740,97.073364 491.660431,88.628334 
	C489.171753,81.438942 489.798889,74.544037 495.221100,68.243599 
M505.765808,92.983887 
	C514.793396,92.607811 515.955872,91.413445 515.995483,82.557259 
	C516.011780,78.899559 516.359985,75.212349 515.983521,71.598320 
	C515.820984,70.038834 514.542908,67.913307 513.190796,67.274712 
	C506.264679,64.003540 499.342712,66.518242 496.970245,72.792030 
	C493.731689,81.356224 497.246704,90.225426 505.765808,92.983887 
z"/>
<path fill="#1671A2" opacity="1.000000" stroke="none" 
	d="
M607.419128,91.978378 
	C612.014771,92.155075 616.223022,91.909729 620.274353,92.593948 
	C626.493713,93.644325 628.692993,98.027046 626.574158,104.004028 
	C623.316162,113.194405 609.497192,118.752785 600.718994,114.403709 
	C594.285339,111.216187 593.030640,105.079842 597.774963,99.669037 
	C598.850891,98.441978 600.179565,97.436539 601.415039,96.307854 
	C599.965210,94.008392 598.755676,92.090096 597.297485,89.777374 
	C599.275757,88.214180 601.039368,86.820633 602.800598,85.423523 
	C596.055115,80.444496 594.434570,76.078552 597.222290,70.397720 
	C599.986145,64.765739 607.137573,62.007401 613.826294,63.458107 
	C618.251404,64.417854 622.837524,64.635277 627.539612,65.207947 
	C627.170471,70.269760 622.520813,65.211548 620.802124,67.867836 
	C623.483521,71.216629 624.273438,75.416519 621.667969,79.628487 
	C618.910400,84.086578 614.550049,85.758720 609.424683,86.086830 
	C607.294067,86.223221 605.214722,87.159569 603.112122,87.732147 
	C603.034119,88.212769 602.956177,88.693390 602.878235,89.174011 
	C604.239319,90.106934 605.600403,91.039856 607.419128,91.978378 
M618.692139,97.272026 
	C614.895447,97.182541 611.060669,97.394569 607.312378,96.921501 
	C603.306641,96.415932 601.456421,98.508743 600.382446,101.707436 
	C599.242004,105.103928 600.511597,107.845726 603.335449,109.922646 
	C608.807007,113.946930 618.330688,112.082344 621.688232,106.200089 
	C623.675293,102.719055 623.535095,99.541222 618.692139,97.272026 
M615.742554,67.841583 
	C611.832703,64.410454 607.793030,63.988251 604.655334,66.682747 
	C601.688965,69.230095 600.530823,76.401176 603.276428,80.039719 
	C604.732239,81.969002 607.799927,83.787651 610.059204,83.694542 
	C612.327148,83.601082 615.892883,81.439903 616.399048,79.526062 
	C617.299438,76.122055 616.320496,72.220963 615.742554,67.841583 
z"/>
<path fill="#1470A2" opacity="1.000000" stroke="none" 
	d="
M580.467651,63.202629 
	C582.325134,66.530952 584.733154,69.580841 585.131348,72.873779 
	C585.825684,78.615616 585.001648,84.526161 585.394409,90.326706 
	C585.552795,92.666626 587.238220,94.903183 588.324158,97.406883 
	C584.541931,97.406883 579.716064,97.406883 574.845520,97.406883 
	C579.308838,92.747360 581.703125,76.219460 578.508728,70.189568 
	C577.775024,68.804558 575.902405,67.505066 574.338440,67.168930 
	C568.153137,65.839592 563.051575,70.077423 562.911438,76.360077 
	C562.814941,80.688354 562.445374,85.055466 562.884827,89.334671 
	C563.168518,92.097542 564.694397,94.732857 565.711243,97.557617 
	C561.987915,97.557617 557.104553,97.557617 552.221191,97.557617 
	C557.234253,94.809570 557.048706,90.180527 556.999268,85.574043 
	C556.952820,81.243698 557.033813,76.911858 556.973877,72.581848 
	C556.933228,69.651886 557.929626,65.979706 551.347778,67.112122 
	C551.810059,66.603325 552.272278,66.094521 552.734558,65.585716 
	C555.896362,64.577347 559.058167,63.568985 562.620972,62.432713 
	C562.837585,63.973366 563.028809,65.333672 563.281372,67.130386 
	C568.602783,64.328209 573.542419,59.916527 580.467651,63.202629 
z"/>
<path fill="#116FA1" opacity="1.000000" stroke="none" 
	d="
M238.226364,84.832985 
	C238.227020,86.300011 238.290726,87.303207 238.217590,88.296326 
	C237.856766,93.196419 239.766357,96.218826 244.987564,97.293671 
	C238.681610,97.293671 232.375671,97.293671 226.069717,97.293671 
	C232.394424,95.980522 231.900635,91.034714 231.923950,86.462296 
	C231.973114,76.810776 231.878418,67.158257 231.968979,57.507324 
	C232.007828,53.366764 231.942673,49.512043 226.349152,48.634464 
	C237.983627,48.634464 249.618103,48.634464 261.684509,48.634464 
	C261.684509,51.623703 261.684509,54.778721 261.684509,57.933739 
	C256.770325,46.377708 246.885925,52.698189 238.726715,50.598141 
	C238.726715,57.680714 238.726715,63.932442 238.726715,70.878105 
	C245.055267,69.843956 252.443756,74.098732 258.442322,66.542107 
	C258.442322,70.909424 258.442322,74.913300 258.442322,80.465248 
	C253.283936,70.209084 245.315292,75.359039 238.226318,73.839134 
	C238.226318,77.785896 238.226318,81.075203 238.226364,84.832985 
z"/>
<path fill="#1370A2" opacity="1.000000" stroke="none" 
	d="
M298.817047,97.010712 
	C296.424072,97.590347 294.398834,98.116142 292.147614,98.700607 
	C291.946228,97.028969 291.791168,95.741699 291.621124,94.330238 
	C291.095703,94.368980 290.583252,94.275269 290.199951,94.455780 
	C287.073669,95.928146 284.113312,98.055504 280.830719,98.826454 
	C275.072449,100.178856 270.031158,95.884987 269.778961,89.685158 
	C269.556396,84.213272 269.834503,78.719772 269.932434,73.236549 
	C269.993317,69.827141 270.248627,66.343346 265.130524,65.402794 
	C268.584412,64.367203 272.038269,63.331615 275.264496,62.364288 
	C275.264496,69.879913 275.037354,77.178375 275.320801,84.456963 
	C275.692627,94.004433 281.097778,96.777596 289.218628,91.656456 
	C290.463867,90.871201 291.552002,88.906723 291.656342,87.413780 
	C291.991852,82.614166 291.846161,77.779991 291.859497,72.959068 
	C291.869232,69.440186 291.809113,65.941833 285.460968,67.104652 
	C285.849792,66.558960 286.238586,66.013275 286.627411,65.467583 
	C288.420563,65.108925 290.212280,64.742805 292.007294,64.393669 
	C293.888184,64.027847 295.772186,63.678333 297.359314,63.377674 
	C297.359314,71.486382 297.342926,79.447830 297.366882,87.409157 
	C297.377319,90.870171 296.661682,94.846504 302.358063,95.315697 
	C301.300323,95.862747 300.242554,96.409805 298.817047,97.010712 
z"/>
<path fill="#126EA0" opacity="1.000000" stroke="none" 
	d="
M161.649948,27.692238 
	C160.139694,28.164869 158.541214,28.321821 156.580444,28.514345 
	C156.415070,27.941792 156.295853,27.193855 155.986771,26.534977 
	C155.479980,25.454597 154.849899,24.432060 154.271805,23.385128 
	C153.486725,24.410934 152.708313,25.441957 151.913605,26.460262 
	C151.537933,26.941631 151.131042,27.398634 150.378021,27.551956 
	C148.662460,25.810923 147.561005,23.670626 145.907639,23.082888 
	C139.046249,20.643806 131.975372,18.801468 125.065598,16.488510 
	C119.977951,14.785487 115.252754,14.969887 110.077019,16.688768 
	C89.803787,23.421593 69.382217,29.706917 49.050945,36.267536 
	C47.591980,36.738323 46.415794,38.085442 45.108124,39.025097 
	C44.455364,38.143345 43.802601,37.261589 43.043785,36.236572 
	C39.283173,37.460304 35.468498,38.701626 31.261589,39.915043 
	C32.355991,38.952728 33.728298,37.676979 35.346382,37.135010 
	C60.414589,28.738461 85.463074,20.274229 110.662880,12.288792 
	C114.453819,11.087502 119.177559,11.453219 123.138618,12.432994 
	C133.501831,14.996357 143.767212,18.048269 153.880630,21.469885 
	C156.775742,22.449369 159.019363,25.354429 161.649948,27.692238 
z"/>
<path fill="#106EA1" opacity="1.000000" stroke="none" 
	d="
M398.231750,48.996365 
	C409.316559,48.996506 419.931091,48.996506 430.911011,48.996506 
	C430.911011,51.431999 430.911011,54.993301 430.911011,58.554604 
	C427.720673,49.554386 420.286682,52.294518 413.655365,52.127876 
	C413.655365,65.577141 413.438385,78.837082 413.905304,92.072899 
	C413.970245,93.913834 417.405426,95.635864 419.351990,97.480743 
	C413.263489,97.480743 406.681488,97.480743 400.099457,97.480743 
	C406.865204,96.627541 406.428680,91.623497 406.445831,87.006874 
	C406.488373,75.551231 406.459808,64.095322 406.459808,52.666199 
	C395.862549,50.515736 392.917938,51.577526 388.110931,58.758389 
	C388.435486,55.132114 388.760040,51.505844 389.070557,48.036858 
	C392.205475,48.382912 394.983490,48.689568 398.231750,48.996365 
z"/>
<path fill="#1671A2" opacity="1.000000" stroke="none" 
	d="
M485.214172,96.526703 
	C478.267365,100.134750 477.234558,99.947044 474.542236,94.816513 
	C472.014984,95.978035 469.547241,97.314613 466.938934,98.265770 
	C462.512024,99.880104 458.659210,98.216423 456.640564,94.084061 
	C454.597168,89.901009 455.525940,85.552475 459.820068,83.403801 
	C464.509125,81.057518 469.636963,79.588104 474.976257,77.585426 
	C474.976257,75.800995 475.099213,73.653542 474.947540,71.525642 
	C474.717621,68.299034 473.043457,66.223511 469.656982,66.047890 
	C466.332733,65.875511 463.430695,66.325836 462.304199,70.350410 
	C461.913849,71.744957 460.334137,72.881424 459.106598,73.907051 
	C458.844238,74.126274 457.111664,73.155144 457.138855,73.067291 
	C457.638702,71.451714 457.856598,69.234207 459.019745,68.438293 
	C462.098694,66.331505 465.427490,64.157959 468.973358,63.257854 
	C475.777374,61.530674 480.803589,65.694527 480.941437,72.787003 
	C481.034790,77.589958 480.481079,82.403000 480.293427,87.214516 
	C480.022003,94.173828 480.316376,94.419937 488.078186,93.007561 
	C486.815094,94.606102 486.149048,95.448997 485.214172,96.526703 
M463.498596,84.966835 
	C462.955719,86.983810 461.344879,89.801727 462.117584,90.832054 
	C463.308380,92.419846 466.219849,93.689926 468.248016,93.495415 
	C474.450195,92.900604 475.923676,89.449112 474.196014,80.338737 
	C470.755188,81.758514 467.423431,83.133278 463.498596,84.966835 
z"/>
<path fill="#1B73A4" opacity="1.000000" stroke="none" 
	d="
M312.604614,49.952797 
	C311.016937,49.194969 309.699646,48.766869 306.898346,47.856483 
	C311.721741,46.457531 315.096954,45.478607 319.019653,44.340893 
	C319.019653,52.105042 319.035583,59.526768 319.015106,66.948387 
	C318.994904,74.268738 318.899445,81.589027 318.909241,88.909248 
	C318.917053,94.758171 318.965179,94.758110 325.216339,97.452255 
	C318.654816,97.452255 313.407410,97.452255 308.160004,97.452255 
	C313.663666,96.279236 313.219757,92.005577 313.204224,88.147133 
	C313.153381,75.525368 312.993164,62.904030 312.604614,49.952797 
z"/>
<path fill="#1872A3" opacity="1.000000" stroke="none" 
	d="
M339.747070,80.000015 
	C339.571228,88.305634 339.713837,96.135139 339.132416,103.910515 
	C338.524475,112.040939 332.284332,117.099236 323.615082,116.543236 
	C324.432739,115.469528 324.897522,114.205162 325.562531,114.089218 
	C330.947571,113.150322 333.343445,109.368797 333.527679,104.614761 
	C333.965088,93.330498 333.959717,82.021996 333.767944,70.729492 
	C333.744385,69.342133 331.493683,67.992584 329.823853,66.119354 
	C332.899597,65.106331 336.192291,64.021851 339.747253,62.851002 
	C339.747253,68.642532 339.747253,74.071327 339.747070,80.000015 
z"/>
<path fill="#1671A2" opacity="1.000000" stroke="none" 
	d="
M450.794098,64.150284 
	C451.115265,66.079430 451.145966,67.752846 451.176666,69.426254 
	C449.821838,69.407104 448.420929,69.604759 447.120697,69.328590 
	C443.045776,68.463074 438.179474,72.182243 437.964569,76.906403 
	C437.738220,81.883141 437.578461,86.949242 438.302490,91.841187 
	C438.600098,93.852135 441.284149,95.509865 442.891998,97.338791 
	C438.321533,97.338791 432.770569,97.338791 427.219574,97.338791 
	C433.469269,95.759010 432.032959,90.689514 432.099701,86.346359 
	C432.168732,81.855133 432.412415,77.333740 431.990173,72.881447 
	C431.773651,70.598274 430.270813,68.437080 428.998260,65.376518 
	C431.020203,64.669357 434.233673,63.545475 437.977661,62.236057 
	C437.588470,65.067001 437.270447,67.380424 436.864532,70.333374 
	C441.969208,68.240517 443.719330,60.453106 450.794098,64.150284 
z"/>
<path fill="#1370A2" opacity="1.000000" stroke="none" 
	d="
M534.719849,68.314560 
	C533.329346,67.798012 532.263855,67.547356 531.198425,67.296700 
	C531.085632,66.943367 530.972839,66.590042 530.860107,66.236710 
	C534.361877,65.064224 537.863708,63.891743 541.228882,62.765007 
	C541.228882,71.641968 541.249756,80.230499 541.219116,88.818840 
	C541.205994,92.488792 540.900757,96.264404 545.944824,97.508392 
	C540.765137,97.508392 535.585388,97.508392 530.405701,97.508392 
	C535.660217,95.119347 535.617004,90.398628 535.598083,85.863419 
	C535.574036,80.101768 535.243286,74.341385 534.719849,68.314560 
z"/>
<path fill="#1370A2" opacity="1.000000" stroke="none" 
	d="
M359.811218,64.173569 
	C359.610718,72.358078 359.375458,80.152061 359.247711,87.947807 
	C359.184967,91.775398 358.408234,96.070580 363.900970,97.571152 
	C358.720520,97.571152 353.540100,97.571152 348.359680,97.571152 
	C353.555878,95.196976 353.490601,90.634132 353.624237,86.219002 
	C353.749756,82.072403 353.725830,77.921509 353.818420,73.773636 
	C353.894958,70.343903 354.122772,66.863525 348.234863,67.503822 
	C348.433289,66.879494 348.631744,66.255165 348.830170,65.630829 
	C352.493683,65.015144 356.157227,64.399452 359.811218,64.173569 
z"/>
<path fill="#126EA0" opacity="1.000000" stroke="none" 
	d="
M174.489990,54.456501 
	C173.508789,54.884686 172.621979,54.956703 171.396576,55.053932 
	C171.023712,54.263786 171.193665,53.371857 170.921417,52.645733 
	C169.375519,48.522694 171.578186,47.793125 174.962662,47.990284 
	C176.101425,48.056618 177.248306,47.969265 178.389862,48.004536 
	C182.189651,48.121937 183.760818,46.343697 183.076126,42.229294 
	C186.383179,44.010365 185.458603,46.358158 183.081039,48.273380 
	C180.414505,50.421379 177.430344,52.175079 174.489990,54.456501 
z"/>
<path fill="#1B73A4" opacity="1.000000" stroke="none" 
	d="
M334.924500,47.195091 
	C336.944122,47.974022 340.134949,48.991989 340.118561,49.955418 
	C340.085693,51.888943 338.301392,53.792690 337.227356,55.731548 
	C330.922607,51.600925 330.809143,51.070446 334.924500,47.195091 
z"/>
<path fill="#1671A3" opacity="1.000000" stroke="none" 
	d="
M359.927277,52.309570 
	C358.611450,53.510338 357.452454,54.402550 356.370544,55.235413 
	C350.349426,51.332378 350.307098,50.302776 356.896973,45.833111 
	C357.984772,47.938282 359.034424,49.969646 359.927277,52.309570 
z"/>
<path fill="#1671A3" opacity="1.000000" stroke="none" 
	d="
M535.054688,48.433575 
	C537.345459,45.960018 539.522400,46.223351 541.062378,48.476727 
	C541.789856,49.541183 542.059509,51.873936 541.388489,52.704262 
	C540.487122,53.819668 538.003906,54.948357 537.038452,54.449200 
	C535.079651,53.436478 532.340393,51.815487 535.054688,48.433575 
z"/>
<path fill="#126EA0" opacity="1.000000" stroke="none" 
	d="
M182.968292,41.576157 
	C181.778839,42.344929 180.426575,42.793976 179.616241,43.063061 
	C175.331390,40.508781 171.228333,38.062885 167.083557,35.253006 
	C172.296402,37.011486 177.550934,39.133953 182.968292,41.576157 
z"/>
<path fill="#126EA0" opacity="1.000000" stroke="none" 
	d="
M30.574680,40.010239 
	C30.230080,41.569302 29.573078,43.269611 28.528679,44.986465 
	C28.848282,43.385841 29.555281,41.768661 30.574680,40.010239 
z"/>
<path fill="#126EA0" opacity="1.000000" stroke="none" 
	d="
M164.388611,31.256031 
	C164.040024,31.192894 163.569305,30.879677 163.082489,30.233591 
	C163.466431,30.269131 163.866440,30.637541 164.388611,31.256031 
z"/>
<path fill="#126EA0" opacity="1.000000" stroke="none" 
	d="
M165.085983,32.687069 
	C164.887772,32.681019 164.629135,32.432320 164.441132,31.906868 
	C164.832153,31.807415 165.003433,32.078854 165.085983,32.687069 
z"/>
<path fill="#126EA0" opacity="1.000000" stroke="none" 
	d="
M163.024689,29.692244 
	C162.818558,29.746365 162.531387,29.539965 162.153015,29.078691 
	C162.355774,29.026455 162.649719,29.229088 163.024689,29.692244 
z"/>
<path fill="#126EA0" opacity="1.000000" stroke="none" 
	d="
M166.052429,33.690498 
	C165.848557,33.752163 165.555237,33.556480 165.165512,33.107750 
	C165.367081,33.047516 165.665024,33.240330 166.052429,33.690498 
z"/>
<path fill="#28A7EB" opacity="1.000000" stroke="none" 
	d="
M14.660900,63.313843 
	C14.779354,63.290493 14.789030,63.640564 14.700286,63.671074 
	C14.611542,63.701588 14.542446,63.337189 14.660900,63.313843 
z"/>
<path fill="#7BA4BD" opacity="1.000000" stroke="none" 
	d="
M165.027100,81.173470 
	C156.071594,85.094536 147.220978,89.280266 138.137955,92.879547 
	C121.158417,99.607941 104.077026,106.084633 86.961281,112.460060 
	C82.958282,113.951141 78.695198,115.049744 74.462997,115.506653 
	C71.866440,115.786980 68.528008,115.281738 66.508530,113.792473 
	C56.507713,106.417351 46.835262,98.596977 37.286396,90.446762 
	C43.314659,87.608353 49.103592,85.256729 54.892525,82.905106 
	C60.506149,84.895844 66.237404,86.613976 71.694031,88.968544 
	C75.648216,90.674805 79.147263,90.638786 83.159180,89.209923 
	C94.737823,85.086143 106.387230,81.136597 118.137444,77.538605 
	C120.634331,76.774040 123.678841,77.759514 126.466377,77.994217 
	C128.858643,78.195625 131.353760,79.034073 133.607071,78.591423 
	C136.992813,77.926331 140.613052,76.974388 143.380646,75.057396 
	C146.176208,73.121017 148.054367,69.860161 150.847046,67.333313 
	C155.915466,72.049210 160.471283,76.611336 165.027100,81.173470 
z"/>
<path fill="#27A7EB" opacity="1.000000" stroke="none" 
	d="
M45.098816,39.398628 
	C46.415794,38.085442 47.591980,36.738323 49.050945,36.267536 
	C69.382217,29.706917 89.803787,23.421593 110.077019,16.688768 
	C115.252754,14.969887 119.977951,14.785487 125.065598,16.488510 
	C131.975372,18.801468 139.046249,20.643806 145.907639,23.082888 
	C147.561005,23.670626 148.662460,25.810923 150.028549,27.619162 
	C150.039368,28.001087 149.929688,28.376505 149.568756,28.693684 
	C142.806503,31.343716 136.405182,33.676567 130.003860,36.009422 
	C115.040100,40.815132 100.134415,45.816463 85.071594,50.288506 
	C81.322823,51.401493 76.879257,51.653873 73.081940,50.817551 
	C65.028313,49.043808 57.139164,46.444580 49.303680,43.821991 
	C47.634151,43.263191 46.480709,41.162495 45.098816,39.398628 
z"/>
<path fill="#094A6D" opacity="1.000000" stroke="none" 
	d="
M165.395401,81.119843 
	C160.471283,76.611336 155.915466,72.049210 151.174240,67.205269 
	C156.725830,63.943748 162.462830,60.964039 168.592270,57.995857 
	C172.571075,61.448978 176.175293,64.872223 179.738297,68.337814 
	C182.760773,71.277664 181.978302,73.513382 178.385117,75.180779 
	C174.174332,77.134758 169.970535,79.103737 165.395401,81.119843 
z"/>
<path fill="#094A6C" opacity="1.000000" stroke="none" 
	d="
M54.665207,82.649078 
	C49.103592,85.256729 43.314659,87.608353 37.172737,90.137848 
	C32.615944,87.141464 27.842461,84.469345 24.429848,80.597710 
	C22.496170,78.403931 22.794800,74.242516 22.161530,70.544235 
	C30.217745,73.116188 38.205742,76.097229 46.180283,79.113853 
	C48.949970,80.161575 51.686317,81.297447 54.665207,82.649078 
z"/>
<path fill="#126EA0" opacity="1.000000" stroke="none" 
	d="
M130.234589,36.263397 
	C136.405182,33.676567 142.806503,31.343716 149.555847,28.888817 
	C148.729568,29.938206 147.751846,31.718369 146.345886,32.172405 
	C141.128738,33.857216 135.770523,35.105274 130.234589,36.263397 
z"/>
<path fill="#126EA0" opacity="1.000000" stroke="none" 
	d="
M170.750885,55.055992 
	C170.577866,55.368610 170.096207,55.684486 169.314270,56.028591 
	C169.490082,55.724297 169.966141,55.391773 170.750885,55.055992 
z"/>
<path fill="#FBFCFD" opacity="1.000000" stroke="none" 
	d="
M505.359436,92.959152 
	C497.246704,90.225426 493.731689,81.356224 496.970245,72.792030 
	C499.342712,66.518242 506.264679,64.003540 513.190796,67.274712 
	C514.542908,67.913307 515.820984,70.038834 515.983521,71.598320 
	C516.359985,75.212349 516.011780,78.899559 515.995483,82.557259 
	C515.955872,91.413445 514.793396,92.607811 505.359436,92.959152 
z"/>
<path fill="#F9FBFC" opacity="1.000000" stroke="none" 
	d="
M619.107849,97.352112 
	C623.535095,99.541222 623.675293,102.719055 621.688232,106.200089 
	C618.330688,112.082344 608.807007,113.946930 603.335449,109.922646 
	C600.511597,107.845726 599.242004,105.103928 600.382446,101.707436 
	C601.456421,98.508743 603.306641,96.415932 607.312378,96.921501 
	C611.060669,97.394569 614.895447,97.182541 619.107849,97.352112 
z"/>
<path fill="#F8FAFB" opacity="1.000000" stroke="none" 
	d="
M615.935120,68.184685 
	C616.320496,72.220963 617.299438,76.122055 616.399048,79.526062 
	C615.892883,81.439903 612.327148,83.601082 610.059204,83.694542 
	C607.799927,83.787651 604.732239,81.969002 603.276428,80.039719 
	C600.530823,76.401176 601.688965,69.230095 604.655334,66.682747 
	C607.793030,63.988251 611.832703,64.410454 615.935120,68.184685 
z"/>
<path fill="#F1F5F8" opacity="1.000000" stroke="none" 
	d="
M463.795166,84.737442 
	C467.423431,83.133278 470.755188,81.758514 474.196014,80.338737 
	C475.923676,89.449112 474.450195,92.900604 468.248016,93.495415 
	C466.219849,93.689926 463.308380,92.419846 462.117584,90.832054 
	C461.344879,89.801727 462.955719,86.983810 463.795166,84.737442 
z"/>
</svg>